<svg xmlns="http://www.w3.org/2000/svg" width="512" height="512">

  <g>
    <title>background</title>
    <rect fill="none" id="canvas_background" height="402" width="582" y="-1" x="-1"/>
  </g>
  <g>
    <title>Layer 1</title>
    <path stroke="null" id="svg_2" d="m172.820892,475.162872l-67.053795,0c-22.110344,0 -40.098549,-17.98822 -40.098549,-40.098541l0,-352.867233c0,-22.110332 17.988205,-40.098545 40.098549,-40.098545l246.494804,0c22.110352,0 40.098541,17.988213 40.098541,40.098545l0,123.30304c0,11.073212 8.976074,20.049271 20.049286,20.049271c11.073212,0 20.049286,-8.976059 20.049286,-20.049271l0,-123.30304c0,-44.220673 -35.97644,-80.197095 -80.197113,-80.197095l-246.494804,0c-44.220676,0 -80.197098,35.976422 -80.197098,80.197095l0,352.867233c0,44.220673 35.976421,80.197083 80.197098,80.197083l67.053795,0c11.073212,0 20.049271,-8.976074 20.049271,-20.049286c0,-11.073181 -8.976059,-20.049255 -20.049271,-20.049255z" fill="#afb1b3"/>
    <path stroke="null" id="svg_4" d="m398.63562,364.529785c-12.469116,-12.746582 -32.757477,-12.747162 -45.218628,-0.008698l-58.525665,59.695557c-1.242981,1.267914 -2.159729,2.829498 -2.67038,4.546906l-12.745758,42.894623c-1.129974,3.803131 -0.145477,7.932709 2.569641,10.777466c2.033966,2.13092 4.797058,3.287689 7.631042,3.287689c0.948212,0 1.905487,-0.1297 2.845184,-0.396118l43.026917,-12.183746c1.77066,-0.501282 3.384583,-1.461853 4.68515,-2.789185l58.403076,-59.590393c12.469116,-12.746582 12.469116,-33.486389 -0.00058,-46.2341zm-71.480347,88.375153l-21.646454,6.129761l6.334747,-21.320068l39.489929,-40.279266l15.078735,15.414276l-39.256958,40.055298zm56.412811,-57.558594l-2.065399,2.106995l-15.07605,-15.41153l2.058441,-2.099915c4.156403,-4.248871 10.919159,-4.248871 15.075531,0c4.156403,4.248871 4.156403,11.16214 0.007477,15.404449z" fill="#afb1b3"/>
    <path id="svg_5" d="m339.459015,72l-206,0c-11.045998,0 -20.000008,8.953995 -20.000008,20s8.95401,20 20.000008,20l206,0c11.04599,0 20,-8.953995 20,-20s-8.95401,-20 -20,-20z" fill="#afb1b3"/>
    <path transform="rotate(90 413 195)" id="svg_7" d="m536.000061,195c0,-11.046005 -8.954041,-20 -20,-20l-206.000031,0c-11.046021,0 -20.000031,8.953995 -20.000031,20s8.95401,20 20.000031,20l206.000031,0c11.045959,0 20,-8.953979 20,-20z" fill="#afb1b3"/>
    <rect id="svg_9" height="0" width="1" y="247" x="115.5" stroke-opacity="null" stroke-width="NaN" stroke="null" fill="#afb1b3"/>
    <path id="svg_10" d="m339.459015,212l-206,0c-11.045998,0 -20.000008,8.953979 -20.000008,20s8.95401,20 20.000008,20l206,0c11.04599,0 20,-8.953979 20,-20s-8.95401,-20 -20,-20z" fill="#afb1b3"/>
    <path id="svg_11" d="m338.459015,142l-206,0c-11.045998,0 -20.000008,8.953979 -20.000008,20s8.95401,20 20.000008,20l206,0c11.04599,0 20,-8.953979 20,-20s-8.95401,-20 -20,-20z" fill="#afb1b3"/>
    <path id="svg_13" d="m337.459015,282l-206,0c-11.045998,0 -20.000008,8.953979 -20.000008,20s8.95401,20 20.000008,20l206,0c11.04599,0 20,-8.953979 20,-20s-8.95401,-20 -20,-20z" fill="#afb1b3"/>
    <path transform="rotate(90 413 224.984)" id="svg_14" d="m536.000061,224.983963c0,-11.046021 -8.954041,-20 -20,-20l-206.000031,0c-11.046021,0 -20.000031,8.953979 -20.000031,20s8.95401,20 20.000031,20l206.000031,0c11.045959,0 20,-8.953979 20,-20z" fill="#afb1b3"/>
    <path stroke="null" id="svg_15" d="m266.718964,352l-141.520134,0c-7.588493,0 -13.739822,8.953979 -13.739822,20s6.151329,20 13.739822,20l141.520134,0c7.588501,0 13.739807,-8.953979 13.739807,-20s-6.151306,-20 -13.739807,-20z" fill="#afb1b3"/>
  </g>
</svg>