<svg xmlns="http://www.w3.org/2000/svg" width="27" height="32" viewBox="0 0 27 32">
    <path fill="#00A82D" d="M8.46002709,7.1900086 C8.46002709,7.50838536 8.43383506,8.0390133 8.11953064,8.38392147 C7.7790342,8.70229823 7.25519351,8.72882963 6.9408891,8.72882963 L3.5883087,8.72882963 C2.61920343,8.72882963 2.04297868,8.72882963 1.65009816,8.78189242 C1.44056189,8.80842382 1.17864155,8.91454941 1.04768137,8.9676122 C0.995297305,8.9941436 0.995297305,8.9676122 1.02148934,8.9410808 L8.66956337,1.06125588 C8.6957554,1.03472448 8.72194743,1.03472448 8.6957554,1.08778728 C8.64337133,1.22044426 8.53860319,1.48575823 8.51241116,1.69800941 C8.46002709,2.09598037 8.46002709,2.6796711 8.46002709,3.66133279 L8.46002709,7.1900086 Z M15.5842604,31.0152031 C14.6937313,30.4315124 14.2222746,29.6621019 14.0389304,29.1845367 C13.8555862,28.733503 13.750818,28.2294065 13.750818,27.7253099 C13.750818,25.523204 15.5318764,23.719069 17.7320072,23.719069 C18.3868081,23.719069 18.9106488,24.2496969 18.9106488,24.9129818 C18.9106488,25.3640156 18.6749205,25.7354551 18.308232,25.9477063 C18.1772718,26.0273005 17.9939276,26.0803633 17.8629674,26.1068947 C17.7320072,26.1334261 17.2343586,26.1864889 16.9986303,26.3987401 C16.7367099,26.6109912 16.5271737,26.9558994 16.5271737,27.327339 C16.5271737,27.7253099 16.6843259,28.0967495 16.9462462,28.3620634 C17.4177028,28.8396286 18.0463117,29.1049426 18.7273046,29.1049426 C20.5083629,29.1049426 21.9489248,27.6457157 21.9489248,25.8415807 C21.9489248,24.2231655 20.8750514,22.7904701 19.4606815,22.1537165 C19.2511452,22.0475909 18.9106488,21.9679968 18.5963444,21.8884026 C18.2034639,21.8088084 17.8367754,21.7557456 17.8105834,21.7557456 C16.7105179,21.6230886 13.9603543,20.7475525 13.7770101,18.2801326 C13.7770101,18.2801326 12.965057,21.9945281 11.3411509,23.0027212 C11.1839987,23.0823154 10.9744624,23.1619096 10.7387341,23.2149724 C10.5030058,23.2680352 10.2410854,23.2945666 10.1625093,23.2945666 C7.51711386,23.453755 4.71456618,22.6047503 2.77635564,20.5883641 C2.77635564,20.5883641 1.46675392,19.5005768 0.78576103,16.4494662 C0.628608824,15.706587 0.314304412,14.3800172 0.130960172,13.1330415 C0.0523840687,12.6820078 0.0261920343,12.3370996 0,12.0187229 C0,10.7186844 0.78576103,9.8431483 1.78105834,9.71049132 C1.80725037,9.71049132 1.88582647,9.71049132 1.93821054,9.71049132 C2.54062733,9.71049132 7.12423334,9.71049132 7.12423334,9.71049132 C8.04095454,9.71049132 8.56479523,9.47170874 8.90529168,9.15333198 C9.35055626,8.72882963 9.4553244,8.1186075 9.4553244,7.40225978 C9.4553244,7.40225978 9.4553244,2.57354551 9.4553244,1.96332338 C9.4553244,1.93679198 9.4553244,1.8306664 9.4553244,1.804135 C9.58628457,0.822473308 10.4506217,0 11.7340314,0 C11.7340314,0 12.1269119,0 12.3626402,0 C12.6245606,0 12.938865,0.026531397 13.2269773,0.0530627941 C13.4365136,0.0795941911 13.6198579,0.132656985 13.9341623,0.212251176 C15.5318764,0.610222132 15.8723728,2.25516875 15.8723728,2.25516875 C15.8723728,2.25516875 18.8844568,2.78579669 20.4035947,3.05111066 C21.8441566,3.31642463 25.4062733,3.5552072 26.0872662,7.1900086 C27.6849803,15.839244 26.715875,24.2231655 26.6372989,24.2231655 C25.5110414,32.3948358 18.8058807,31.9968648 18.8058807,31.9968648 C17.3653188,31.9968648 16.2914454,31.5192997 15.5842604,31.0152031 Z M21.6084283,13.6371381 C20.7440912,13.5575439 20.0107142,13.9024521 19.7487939,14.565737 C19.6964098,14.698394 19.6440258,14.8575823 19.6702178,14.9371765 C19.6964098,15.0167707 19.7487939,15.0433021 19.801178,15.0698335 C20.1154824,15.2290219 20.6393231,15.3086161 21.3988921,15.3882103 C22.1584611,15.4678045 22.6823017,15.5208673 23.0227982,15.4678045 C23.0751823,15.4678045 23.1275663,15.4412731 23.1799504,15.3616789 C23.2323345,15.2820847 23.2061424,15.1228963 23.2061424,14.9902393 C23.1013743,14.2473602 22.4727655,13.7432637 21.6084283,13.6371381 Z"/>
</svg>