<?xml version="1.0" encoding="UTF-8"?>
<svg xmlns="http://www.w3.org/2000/svg" xmlns:xlink="http://www.w3.org/1999/xlink" width="13pt" height="13pt" viewBox="0 0 13 13" version="1.1">
<g id="surface1">
<path style=" stroke:none;fill-rule:nonzero;fill:rgb(68.627451%,69.411765%,70.196078%);fill-opacity:1;" d="M 4.386719 12.066406 L 2.683594 12.066406 C 2.125 12.066406 1.667969 11.609375 1.667969 11.046875 L 1.667969 2.085938 C 1.667969 1.527344 2.125 1.070312 2.683594 1.070312 L 8.945312 1.070312 C 9.503906 1.070312 9.960938 1.527344 9.960938 2.085938 L 9.960938 5.21875 C 9.960938 5.5 10.191406 5.726562 10.472656 5.726562 C 10.753906 5.726562 10.980469 5.5 10.980469 5.21875 L 10.980469 2.085938 C 10.980469 0.964844 10.066406 0.0507812 8.945312 0.0507812 L 2.683594 0.0507812 C 1.5625 0.0507812 0.648438 0.964844 0.648438 2.085938 L 0.648438 11.046875 C 0.648438 12.167969 1.5625 13.082031 2.683594 13.082031 L 4.386719 13.082031 C 4.667969 13.082031 4.898438 12.855469 4.898438 12.574219 C 4.898438 12.292969 4.667969 12.066406 4.386719 12.066406 Z M 4.386719 12.066406 "/>
<path style=" stroke:none;fill-rule:nonzero;fill:rgb(68.627451%,69.411765%,70.196078%);fill-opacity:1;" d="M 10.121094 9.253906 C 9.804688 8.933594 9.289062 8.933594 8.972656 9.253906 L 7.488281 10.769531 C 7.457031 10.804688 7.433594 10.84375 7.417969 10.886719 L 7.097656 11.976562 C 7.066406 12.070312 7.09375 12.175781 7.160156 12.25 C 7.214844 12.304688 7.28125 12.332031 7.355469 12.332031 C 7.378906 12.332031 7.402344 12.328125 7.425781 12.324219 L 8.519531 12.011719 C 8.566406 12 8.605469 11.976562 8.640625 11.941406 L 10.121094 10.429688 C 10.4375 10.105469 10.4375 9.578125 10.121094 9.253906 Z M 8.308594 11.5 L 7.757812 11.65625 L 7.917969 11.113281 L 8.921875 10.089844 L 9.304688 10.484375 Z M 9.738281 10.039062 L 9.6875 10.089844 L 9.304688 9.699219 L 9.355469 9.648438 C 9.460938 9.539062 9.632812 9.539062 9.738281 9.648438 C 9.84375 9.753906 9.84375 9.929688 9.738281 10.039062 Z M 9.738281 10.039062 "/>
<path style=" stroke:none;fill-rule:nonzero;fill:rgb(68.627451%,69.411765%,70.196078%);fill-opacity:1;" d="M 8.617188 1.828125 L 3.386719 1.828125 C 3.109375 1.828125 2.878906 2.054688 2.878906 2.335938 C 2.878906 2.617188 3.109375 2.84375 3.386719 2.84375 L 8.617188 2.84375 C 8.898438 2.84375 9.125 2.617188 9.125 2.335938 C 9.125 2.054688 8.898438 1.828125 8.617188 1.828125 Z M 8.617188 1.828125 "/>
<path style=" stroke:none;fill-rule:nonzero;fill:rgb(68.627451%,69.411765%,70.196078%);fill-opacity:1;" d="M 10.484375 8.074219 C 10.765625 8.074219 10.992188 7.847656 10.992188 7.566406 L 10.992188 2.335938 C 10.992188 2.054688 10.765625 1.828125 10.484375 1.828125 C 10.207031 1.828125 9.976562 2.054688 9.976562 2.335938 L 9.976562 7.566406 C 9.976562 7.847656 10.207031 8.074219 10.484375 8.074219 Z M 10.484375 8.074219 "/>
<path style=" stroke:none;fill-rule:nonzero;fill:rgb(68.627451%,69.411765%,70.196078%);fill-opacity:1;" d="M 8.617188 5.382812 L 3.386719 5.382812 C 3.109375 5.382812 2.878906 5.609375 2.878906 5.890625 C 2.878906 6.171875 3.109375 6.398438 3.386719 6.398438 L 8.617188 6.398438 C 8.898438 6.398438 9.125 6.171875 9.125 5.890625 C 9.125 5.609375 8.898438 5.382812 8.617188 5.382812 Z M 8.617188 5.382812 "/>
<path style=" stroke:none;fill-rule:nonzero;fill:rgb(68.627451%,69.411765%,70.196078%);fill-opacity:1;" d="M 8.59375 3.605469 L 3.363281 3.605469 C 3.082031 3.605469 2.855469 3.832031 2.855469 4.113281 C 2.855469 4.394531 3.082031 4.621094 3.363281 4.621094 L 8.59375 4.621094 C 8.875 4.621094 9.101562 4.394531 9.101562 4.113281 C 9.101562 3.832031 8.875 3.605469 8.59375 3.605469 Z M 8.59375 3.605469 "/>
<path style=" stroke:none;fill-rule:nonzero;fill:rgb(68.627451%,69.411765%,70.196078%);fill-opacity:1;" d="M 8.566406 7.160156 L 3.335938 7.160156 C 3.058594 7.160156 2.828125 7.386719 2.828125 7.667969 C 2.828125 7.949219 3.058594 8.175781 3.335938 8.175781 L 8.566406 8.175781 C 8.847656 8.175781 9.074219 7.949219 9.074219 7.667969 C 9.074219 7.386719 8.847656 7.160156 8.566406 7.160156 Z M 8.566406 7.160156 "/>
<path style=" stroke:none;fill-rule:nonzero;fill:rgb(68.627451%,69.411765%,70.196078%);fill-opacity:1;" d="M 10.488281 8.835938 C 10.765625 8.835938 10.996094 8.609375 10.996094 8.328125 L 10.996094 3.097656 C 10.996094 2.816406 10.765625 2.589844 10.488281 2.589844 C 10.207031 2.589844 9.980469 2.816406 9.980469 3.097656 L 9.980469 8.328125 C 9.980469 8.609375 10.207031 8.835938 10.488281 8.835938 Z M 10.488281 8.835938 "/>
<path style=" stroke:none;fill-rule:nonzero;fill:rgb(68.627451%,69.411765%,70.196078%);fill-opacity:1;" d="M 6.773438 8.9375 L 3.179688 8.9375 C 2.984375 8.9375 2.828125 9.164062 2.828125 9.445312 C 2.828125 9.726562 2.984375 9.953125 3.179688 9.953125 L 6.773438 9.953125 C 6.964844 9.953125 7.121094 9.726562 7.121094 9.445312 C 7.121094 9.164062 6.964844 8.9375 6.773438 8.9375 Z M 6.773438 8.9375 "/>
</g>
</svg>
